# xmcd CD database file
#
# Track frame offsets:
#	150
#	43235
#	87199
#	124579
#	149706
#	186962
#
# Disc length: 3120 seconds
#
# Revision: 0
# Processed by: cddbd v1.5.2PL0 Copyright (c) Steve Scherf et al.
# Submitted via: CDex 1.51
#
DISCID=560c2e06
DTITLE=Sara Indrio - Quiet Please
DYEAR=2007
DGENRE=New Age
TTITLE0=01- Transparant Moon On Blue
TTITLE1=02- The Bells Of St. Matthew's
TTITLE2=03- Break Of Day
TTITLE3=04- Reveries
TTITLE4=05- Nocturne
TTITLE5=06- Sound Of Space
EXTD=YEAR: 2007
EXTT0=
EXTT1=
EXTT2=
EXTT3=
EXTT4=
EXTT5=
PLAYORDER=
